<svg width="22" height="12" viewBox="0 0 22 12" fill="none" xmlns="http://www.w3.org/2000/svg">
<path d="M11.3868 11.2882C11.0338 11.2889 10.6916 11.1659 10.4197 10.9406L1.35285 3.38488C1.04425 3.12838 0.850181 2.7598 0.81334 2.36021C0.776499 1.96063 0.899902 1.56277 1.1564 1.25417C1.4129 0.94557 1.78149 0.751503 2.18107 0.714662C2.58066 0.67782 2.97851 0.801222 3.28711 1.05772L11.3868 7.82764L19.4866 1.29951C19.6411 1.17398 19.819 1.08024 20.0099 1.02368C20.2008 0.967113 20.401 0.948838 20.599 0.969902C20.797 0.990966 20.9889 1.05095 21.1637 1.14642C21.3384 1.24188 21.4926 1.37094 21.6173 1.52618C21.7557 1.68155 21.8605 1.86384 21.9251 2.06161C21.9898 2.25938 22.0129 2.46837 21.9931 2.67549C21.9732 2.88261 21.9108 3.0834 21.8097 3.26528C21.7087 3.44715 21.5711 3.6062 21.4057 3.73245L12.3389 11.0313C12.0592 11.2209 11.724 11.3114 11.3868 11.2882Z" fill="white"/>
</svg>
