<svg width="27" height="28" viewBox="0 0 27 28" fill="none" xmlns="http://www.w3.org/2000/svg">
<path d="M13.5 2.8C10.6357 2.8 7.88864 3.98 5.86325 6.0804C3.83785 8.18081 2.7 11.0296 2.7 14C2.7 16.9704 3.83785 19.8192 5.86325 21.9196C7.88864 24.02 10.6357 25.2 13.5 25.2C16.3643 25.2 19.1114 24.02 21.1368 21.9196C23.1621 19.8192 24.3 16.9704 24.3 14C24.3 11.0296 23.1621 8.18081 21.1368 6.0804C19.1114 3.98 16.3643 2.8 13.5 2.8ZM0 14C0 6.2678 6.04395 0 13.5 0C20.956 0 27 6.2678 27 14C27 21.7322 20.956 28 13.5 28C6.04395 28 0 21.7322 0 14ZM19.7964 9.4542C20.0637 9.70086 20.2256 10.0475 20.2466 10.4179C20.2676 10.7882 20.146 11.1521 19.9084 11.4296L12.7089 19.8296C12.5822 19.9774 12.4268 20.0957 12.2529 20.1767C12.079 20.2577 11.8904 20.2996 11.6998 20.2996C11.5091 20.2996 11.3206 20.2577 11.1467 20.1767C10.9727 20.0957 10.8173 19.9774 10.6906 19.8296L7.09155 15.6296C6.86761 15.3502 6.75715 14.9916 6.7835 14.6293C6.80986 14.267 6.97096 13.9296 7.23279 13.6883C7.49461 13.4469 7.83665 13.3205 8.18664 13.3359C8.53664 13.3512 8.86718 13.507 9.10845 13.7704L11.7004 16.793L17.8916 9.569C18.1296 9.29202 18.4639 9.12435 18.8211 9.10282C19.1782 9.0813 19.529 9.20768 19.7964 9.4542Z" fill="#0D0D0D"/>
</svg>
