<svg width="14" height="15" viewBox="0 0 14 15" fill="none" xmlns="http://www.w3.org/2000/svg">
<path d="M12.3795 7.54541H14M12.3795 7.54541C12.3795 8.5163 11.6063 9.30336 10.6525 9.30336C9.69877 9.30336 8.92557 8.5163 8.92557 7.54541M12.3795 7.54541C12.3795 6.57453 11.6063 5.78747 10.6525 5.78747C9.69877 5.78747 8.92557 6.57453 8.92557 7.54541M0 7.54541H8.92557M5.42846 2.84877H14M0 2.84877H1.98026M7.86349 12.2421H14M7.86349 12.2421C7.86349 13.2129 7.09029 14 6.13651 14C5.18273 14 4.40954 13.2129 4.40954 12.2421M7.86349 12.2421C7.86349 11.2712 7.09029 10.4841 6.13651 10.4841C5.18273 10.4841 4.40954 11.2712 4.40954 12.2421M0 12.2421H4.40954M5.43133 2.75794C5.43133 3.72883 4.65814 4.51589 3.70436 4.51589C2.75057 4.51589 1.97738 3.72883 1.97738 2.75794C1.97738 1.78706 2.75057 1 3.70436 1C4.65814 1 5.43133 1.78706 5.43133 2.75794Z" stroke="white"/>
</svg>
