<svg width="20" height="19" viewBox="0 0 20 19" fill="none" xmlns="http://www.w3.org/2000/svg">
<path d="M18.8878 7.76864L10.7495 0.281067C10.6514 0.192007 10.5346 0.121317 10.406 0.0730769C10.2774 0.0248365 10.1394 0 10.0001 0C9.86072 0 9.72275 0.0248365 9.59412 0.0730769C9.46549 0.121317 9.34875 0.192007 9.25062 0.281067L1.11234 7.77814C0.915414 7.95684 0.759887 8.16898 0.654789 8.40224C0.549692 8.6355 0.497119 8.88523 0.500122 9.13693V17.0996C0.499304 17.586 0.705714 18.0542 1.07685 18.4077C1.44798 18.7613 1.95558 18.9732 2.49511 19H17.505C18.0445 18.9732 18.5521 18.7613 18.9233 18.4077C19.2944 18.0542 19.5008 17.586 19.5 17.0996V9.13693C19.5008 8.62661 19.2813 8.13597 18.8878 7.76864ZM7.88896 17.0996V11.3984H12.1112V17.0996H7.88896ZM17.3889 17.0996H14.2223V10.4482C14.2223 10.1962 14.111 9.95451 13.9131 9.77631C13.7151 9.59811 13.4467 9.498 13.1667 9.498H6.83341C6.55347 9.498 6.28498 9.59811 6.08703 9.77631C5.88908 9.95451 5.77787 10.1962 5.77787 10.4482V17.0996H2.61122V9.09892L10.0001 2.30499L17.3889 9.13693V17.0996Z" fill="black"/>
</svg>
