<svg width="38" height="35" viewBox="0 0 38 35" fill="none" xmlns="http://www.w3.org/2000/svg">
<path d="M5.47424 27.9704C5.47424 27.9704 9.37503 23.275 19 23.275C28.625 23.275 32.5259 27.9704 32.5259 27.9704M19 1C9.33501 1 1.5 8.3873 1.5 17.5C1.5 26.6126 9.33501 34 19 34C28.6649 34 36.5 26.6126 36.5 17.5C36.5 8.3873 28.6649 1 19 1ZM19 17.5C21.8996 17.5 24.25 15.2839 24.25 12.55C24.25 9.8162 21.8996 7.6 19 7.6C16.1004 7.6 13.75 9.8162 13.75 12.55C13.75 15.2839 16.1004 17.5 19 17.5Z" stroke="white" stroke-width="2" stroke-linecap="round" stroke-linejoin="round"/>
</svg>
