<svg width="21" height="21" viewBox="0 0 21 21" fill="none" xmlns="http://www.w3.org/2000/svg">
<path d="M14.775 3.375C14.775 2.06333 13.7117 1 12.4 1C11.0883 1 10.025 2.06333 10.025 3.375V4.8H9.07502C7.74701 4.8 7.08305 4.8 6.55932 5.01694C5.86097 5.3062 5.30617 5.86103 5.01689 6.55935C4.80001 7.0831 4.80001 8.69709 4.80001 10.025H3.375C2.06324 10.025 1 11.0883 1 12.4C1 13.7117 2.06324 14.775 3.375 14.775H4.80001V15.44C4.80001 17.0362 4.80001 17.8342 5.11056 18.4439C5.38388 18.9802 5.81984 19.4161 6.35611 19.6893C6.96573 20 7.76382 20 9.36002 20H10.025V18.3375C10.025 17.157 10.982 16.2 12.1625 16.2C13.343 16.2 14.3 17.157 14.3 18.3375V20H15.44C17.0361 20 17.8342 20 18.4439 19.6893C18.9801 19.4161 19.4161 18.9802 19.6894 18.4439C20 17.8342 20 17.9862 20 16.39V14.775H18.575C17.2633 14.775 16.2 13.7117 16.2 12.4C16.2 11.0883 17.2633 10.025 18.575 10.025H20C20 8.69709 20 7.0831 19.783 6.55935C19.4938 5.86103 18.939 5.3062 18.2406 5.01694C17.7169 4.8 17.0529 4.8 15.725 4.8H14.775V3.375Z" fill="#B2EA87" stroke="black" stroke-linecap="round" stroke-linejoin="round"/>
</svg>
