<svg width="20" height="21" viewBox="0 0 20 21" fill="none" xmlns="http://www.w3.org/2000/svg">
<path d="M10.0981 0C5.27475 3.81887e-07 5.57596 2.32399 5.57596 2.32399L5.58133 4.73162H10.1842V5.45451H3.75311C3.75311 5.45451 0.666626 5.0656 0.666626 10.4729C0.666626 15.8802 3.36057 15.6884 3.36057 15.6884H4.96834V13.1792C4.96834 13.1792 4.88168 10.1861 7.61927 10.1861H12.1845C12.1845 10.1861 14.7494 10.2322 14.7494 7.43199V2.80193C14.7494 2.80193 15.1388 0 10.0981 0ZM7.56012 1.61903C8.01807 1.61903 8.3882 2.03026 8.3882 2.53906C8.3882 3.04787 8.01807 3.4591 7.56012 3.4591C7.10217 3.4591 6.73204 3.04787 6.73204 2.53906C6.73204 2.03026 7.10217 1.61903 7.56012 1.61903Z" fill="url(#paint0_linear_41_262)"/>
<path d="M10.2351 21C15.0585 21 14.7573 18.676 14.7573 18.676L14.7519 16.2684H10.1491V15.5455H16.5801C16.5801 15.5455 19.6666 15.9344 19.6666 10.5271C19.6666 5.11982 16.9727 5.31157 16.9727 5.31157H15.3649V7.82076C15.3649 7.82076 15.4516 10.8139 12.714 10.8139H8.14879C8.14879 10.8139 5.58389 10.7678 5.58389 13.568V18.1981C5.58389 18.1981 5.19447 21 10.2351 21ZM12.7731 19.381C12.3152 19.381 11.9451 18.9697 11.9451 18.4609C11.9451 17.9521 12.3152 17.5409 12.7731 17.5409C13.2311 17.5409 13.6012 17.9521 13.6012 18.4609C13.6012 18.9697 13.2311 19.381 12.7731 19.381Z" fill="url(#paint1_linear_41_262)"/>
<defs>
<linearGradient id="paint0_linear_41_262" x1="631.01" y1="644.71" x2="4193.66" y2="3830.52" gradientUnits="userSpaceOnUse">
<stop stop-color="white"/>
<stop offset="1" stop-color="#366994"/>
</linearGradient>
<linearGradient id="paint1_linear_41_262" x1="695.5" y1="828.635" x2="3537.68" y2="3237.44" gradientUnits="userSpaceOnUse">
<stop stop-color="white"/>
<stop offset="1" stop-color="#FFC331"/>
</linearGradient>
</defs>
</svg>
