<svg width="16" height="17" viewBox="0 0 16 17" fill="none" xmlns="http://www.w3.org/2000/svg">
<path d="M15.7824 14.6976L12.6666 11.3876C12.5259 11.2382 12.3353 11.1552 12.1353 11.1552H11.6259C12.4884 9.9832 13.001 8.50913 13.001 6.90558C13.001 3.09091 10.0914 0 6.50048 0C2.90959 0 0 3.09091 0 6.90558C0 10.7202 2.90959 13.8112 6.50048 13.8112C8.00996 13.8112 9.39756 13.2667 10.5008 12.3504V12.8915C10.5008 13.104 10.5789 13.3065 10.7195 13.4559L13.8354 16.7659C14.1292 17.078 14.6042 17.078 14.8948 16.7659L15.7793 15.8264C16.0731 15.5143 16.0731 15.0097 15.7824 14.6976ZM6.50048 11.1552C4.29094 11.1552 2.50018 9.25613 2.50018 6.90558C2.50018 4.55834 4.28781 2.65599 6.50048 2.65599C8.71001 2.65599 10.5008 4.55502 10.5008 6.90558C10.5008 9.25281 8.71314 11.1552 6.50048 11.1552Z" fill="white"/>
</svg>
